<?xml version="1.0" encoding="UTF-8"?><svg id="a" xmlns="http://www.w3.org/2000/svg" viewBox="0 0 786 628.8"><defs><style>.c{fill:#192f32;}.d{fill:#5cc9de;}.e{fill:none;}.e,.f,.g,.h,.i{stroke:#192f32;stroke-miterlimit:10;}.e,.f,.g,.i{stroke-width:11px;}.f{fill:#f6cdb5;}.j{fill:#f79b71;}.g,.k{fill:#fedb7b;}.h{fill:#df6147;stroke-width:10px;}.i{fill:#dcaf8f;}</style></defs><path class="h" d="M569.07,297.4c0,15.55-1.99,30.63-5.72,45.01-17.57-2.05-74.02,9.95-98.02,22.39-2.55,1.32-5.63,2.85-9.17,4.63-7.02-19.69-22.22-39.88-49.59-58.26,16.25,65.99-4.36,90.88-44.4,95.99-28.73,3.66-77.53-2.41-124.31-16.46-16.66-27.16-26.26-59.11-26.26-93.3,0-9.57,.75-18.97,2.2-28.13,13.49-85.34,87.39-150.6,176.53-150.6,98.72,0,178.74,80.02,178.74,178.73Z"/><circle class="j" cx="390.33" cy="297.4" r="145.18"/><circle class="k" cx="390.33" cy="297.4" r="121.2"/><circle class="g" cx="390.33" cy="297.4" r="79.49"/><path class="i" d="M563.35,342.41c-3.97,15.32-9.92,29.84-17.58,43.27-15.39,.38-53.67,1.08-84.74,12.28,.06-9.2-1.41-18.8-4.87-28.53,3.54-1.78,6.62-3.31,9.17-4.63,24-12.44,80.45-24.44,98.02-22.39Z"/><path class="f" d="M545.77,385.68c-25.52,44.84-69.88,77.57-122.32,87.39,5.06-5.07,9.78-10.52,14.83-16.18,12.23-13.71,22.63-34.98,22.75-58.93,31.07-11.2,69.35-11.9,84.74-12.28Z"/><g><path class="d" d="M393,476.3c-3.2,0-6.31-.08-9.24-.25-15.73-.82-31.22-3.77-46.06-8.76-16.56-5.58-32.16-13.63-46.38-23.95-14.6-10.6-27.3-23.21-37.89-37.62,32.71,8.63,66.53,13.65,92.86,13.65,7.1,0,13.57-.37,19.24-1.09,21.08-2.69,35.71-10.38,44.71-23.5,10.19-14.86,12.65-36.21,7.41-65,17.79,14.17,29.87,29.99,36,47.16,3.08,8.65,4.61,17.62,4.55,26.65-.1,19.75-8.08,40.42-21.35,55.3l-2.62,2.95c-3.68,4.14-7.17,8.08-10.8,11.79-9.97,1.77-20.2,2.66-30.43,2.66Z"/><path class="c" d="M425.16,343.74c11.07,10.89,18.87,22.62,23.3,35.04,2.86,8.06,4.29,16.39,4.23,24.79-.09,18.44-7.55,37.76-19.96,51.66-.89,1-1.77,1.99-2.64,2.97-3.2,3.61-6.27,7.06-9.38,10.32-9.11,1.51-18.41,2.28-27.72,2.28-3.1,0-6.1-.08-8.92-.24h-.03s-.03,0-.03,0c-15.21-.79-30.2-3.64-44.56-8.48-16.03-5.4-31.14-13.2-44.9-23.19-9.75-7.07-18.62-15.08-26.55-23.94,27.98,6.33,55.8,9.92,78.29,9.92,7.33,0,14.04-.38,19.94-1.13,22.41-2.86,38.75-11.56,48.55-25.85,9.15-13.33,12.6-31.19,10.39-54.15m-15.93-26.91c16.25,65.99-4.36,90.88-44.4,95.99-5.5,.7-11.73,1.04-18.54,1.04-28.79,0-67.94-6.14-105.77-17.5,12.33,20.11,28.53,37.6,47.57,51.42,14.47,10.5,30.57,18.89,47.85,24.71,15.03,5.06,30.97,8.18,47.5,9.04,3.16,.18,6.35,.26,9.55,.26,11.32,0,22.39-1.05,33.12-3.06,5.06-5.07,9.78-10.52,14.83-16.18,12.23-13.71,22.63-34.98,22.75-58.93,.06-9.2-1.41-18.8-4.87-28.53-7.02-19.69-22.22-39.88-49.59-58.26h0Z"/></g><g><path class="d" d="M293.73,437.08c-3.58,0-7.35-.12-11.21-.35-21.12-15.63-38.65-36.13-50.77-59.38-12.77-24.49-19.51-52.14-19.51-79.96,0-.95,0-1.89,.02-2.84,11.28,32.46,25.7,67.78,85.18,75.35,4.01,.51,7.85,.77,11.42,.77,16.08,0,27.78-5.16,34.76-15.34,10.59-15.44,6.9-38.38,3.47-51.46,12.98,4.68,35.11,16.44,37.23,42.69,2.8,34.78-5.97,58.16-26.82,71.48-13.27,8.48-29.79,19.02-63.78,19.02Z"/><path class="c" d="M354.75,313.39c1.04,.56,2.09,1.16,3.14,1.81,12.83,7.88,19.88,18.59,20.94,31.81,1.43,17.75-.28,32.49-5.08,43.81-4.04,9.53-10.33,16.92-19.21,22.6-13.33,8.51-28.43,18.16-60.81,18.16-2.97,0-6.07-.08-9.25-.25-19.87-15.01-36.37-34.49-47.86-56.52-7.71-14.79-13.08-30.33-16.07-46.46,12.51,22.42,33.12,41.54,76.19,47.02,4.24,.54,8.32,.81,12.12,.81,22.43,0,33.75-9.64,39.29-17.73,7.34-10.71,9.64-25.4,6.82-43.65-.07-.48-.15-.95-.23-1.42m-145.82-44.12c-1.45,9.16-2.2,18.56-2.2,28.13,0,59.52,29.09,112.24,73.83,144.72,4.66,.31,9.03,.46,13.16,.46,34.73,0,51.85-10.38,66.74-19.89,20-12.78,32.67-35.23,29.34-76.56-3.34-41.33-51-50.33-51-50.33,0,0,26.81,69.39-29.94,69.39-3.29,0-6.86-.23-10.73-.73-69.98-8.91-73.27-56.39-89.2-95.19h0Z"/></g><circle class="e" cx="390.33" cy="297.4" r="179.64"/><g><path class="c" d="M133.94,554.23c-.96,0-1.9-.08-2.81-.25-.91-.17-1.78-.49-2.59-.97-.82-.48-1.52-1.09-2.12-1.84-.6-.74-1.08-1.54-1.44-2.38-.36-.84-.61-1.73-.76-2.66-.14-.94-.22-1.86-.22-2.77,0-1.3,.16-2.57,.47-3.82,.31-1.25,.84-2.38,1.58-3.38,.74-1.01,1.66-1.86,2.74-2.56,1.08-.7,2.22-1.25,3.42-1.66,1.2-.41,2.44-.7,3.71-.86,1.27-.17,2.53-.25,3.78-.25h4.39v-2.45c0-.82-.12-1.59-.36-2.34-.24-.74-.64-1.39-1.19-1.94-.55-.55-1.21-.95-1.98-1.19-.77-.24-1.56-.36-2.38-.36-.67,0-1.36,.08-2.05,.25-.7,.17-1.33,.47-1.91,.9-.58,.43-1.02,.98-1.33,1.66-.31,.67-.47,1.34-.47,2.02h-7.99c0-1.1,.16-2.21,.47-3.31,.31-1.1,.78-2.14,1.4-3.1,.62-.96,1.39-1.8,2.3-2.52,.91-.72,1.9-1.28,2.95-1.69,1.06-.41,2.15-.7,3.28-.86,1.13-.17,2.24-.25,3.35-.25,1.2,0,2.4,.08,3.6,.25,1.2,.17,2.34,.49,3.42,.97,1.08,.48,2.08,1.12,2.99,1.91,.91,.79,1.67,1.7,2.27,2.74,.6,1.03,1.02,2.14,1.26,3.31,.24,1.18,.36,2.36,.36,3.56v25.27h-7.99v-5.62c-.24,.48-.4,.78-.47,.9-.07,.12-.18,.29-.32,.5-.14,.22-.3,.43-.47,.65-.17,.22-.34,.42-.5,.61-.17,.19-.35,.38-.54,.58s-.38,.37-.58,.54c-.19,.17-.4,.32-.61,.47-.22,.14-.43,.29-.65,.43-.22,.14-.44,.28-.68,.4-.24,.12-.48,.23-.72,.32-.24,.1-.49,.18-.76,.25-.26,.07-.52,.14-.76,.22-.24,.07-.49,.12-.76,.14-.26,.02-.53,.05-.79,.07-.26,.02-.53,.05-.79,.07-.26,.02-.52,.04-.76,.04Zm3.24-6.91c.91,0,1.81-.13,2.7-.4,.89-.26,1.66-.71,2.3-1.33,.65-.62,1.13-1.37,1.44-2.23,.31-.86,.47-1.75,.47-2.66v-2.95h-4.39c-.58,0-1.14,.02-1.69,.07-.55,.05-1.1,.14-1.66,.29-.55,.14-1.09,.32-1.62,.54-.53,.22-1.01,.52-1.44,.9-.43,.38-.76,.84-.97,1.37-.22,.53-.32,1.08-.32,1.66,0,.67,.12,1.32,.36,1.94,.24,.62,.61,1.16,1.12,1.62,.5,.46,1.08,.77,1.73,.94,.65,.17,1.31,.25,1.98,.25Z"/><path class="c" d="M164.18,553.65l-6.19-37.44h8.06l1.8,29.66,3.31-19.15h6.34l3.31,19.15,1.8-29.66h8.06l-6.19,37.44h-6.41l-3.74-18.94-3.74,18.94h-6.41Z"/><path class="c" d="M210.48,554.23c-1.3,0-2.6-.12-3.92-.36-1.32-.24-2.56-.67-3.71-1.3-1.15-.62-2.19-1.42-3.1-2.38-.91-.96-1.66-2.04-2.23-3.24-.58-1.2-.97-2.46-1.19-3.78-.22-1.32-.32-2.63-.32-3.92v-8.64c0-1.3,.11-2.6,.32-3.92,.22-1.32,.6-2.57,1.15-3.74,.55-1.18,1.27-2.26,2.16-3.24,.89-.98,1.91-1.79,3.06-2.41,1.15-.62,2.39-1.05,3.71-1.3,1.32-.24,2.63-.36,3.92-.36s2.6,.12,3.92,.36c1.32,.24,2.56,.67,3.71,1.3,1.15,.62,2.17,1.43,3.06,2.41,.89,.98,1.61,2.06,2.16,3.24,.55,1.18,.94,2.42,1.15,3.74,.22,1.32,.32,2.63,.32,3.92v7.78h-20.66v.86c0,.96,.11,1.93,.32,2.92,.22,.98,.6,1.87,1.15,2.66,.55,.79,1.28,1.4,2.2,1.84,.91,.43,1.85,.65,2.81,.65,.72,0,1.43-.07,2.12-.22,.7-.14,1.33-.41,1.91-.79,.58-.38,1.04-.89,1.4-1.51,.36-.62,.56-1.3,.61-2.02h7.99c-.05,1.15-.25,2.26-.61,3.31-.36,1.06-.86,2.05-1.51,2.99-.65,.94-1.43,1.74-2.34,2.41-.91,.67-1.9,1.22-2.95,1.66-1.06,.43-2.14,.72-3.24,.86-1.1,.14-2.23,.22-3.38,.22Zm-6.48-22.75h12.67v-.86c0-.96-.1-1.92-.29-2.88-.19-.96-.56-1.85-1.12-2.66-.55-.82-1.27-1.44-2.16-1.87-.89-.43-1.81-.65-2.77-.65s-1.88,.22-2.77,.65c-.89,.43-1.61,1.06-2.16,1.87-.55,.82-.92,1.7-1.12,2.66-.19,.96-.29,1.92-.29,2.88v.86Z"/><path class="c" d="M246.19,554.23c-1.1,0-2.21-.07-3.31-.22-1.1-.14-2.18-.42-3.24-.83-1.06-.41-2.04-.95-2.95-1.62-.91-.67-1.68-1.46-2.3-2.38-.62-.91-1.1-1.91-1.44-2.99-.34-1.08-.5-2.2-.5-3.35h8.06c0,.67,.16,1.32,.47,1.94,.31,.62,.76,1.13,1.33,1.51,.58,.38,1.2,.65,1.87,.79,.67,.14,1.34,.22,2.02,.22,.72,0,1.42-.06,2.09-.18,.67-.12,1.3-.36,1.87-.72,.58-.36,1.04-.84,1.4-1.44,.36-.6,.54-1.24,.54-1.91,0-.77-.26-1.45-.79-2.05-.53-.6-1.14-1.03-1.84-1.3-.7-.26-1.42-.48-2.16-.65-.75-.17-1.48-.36-2.2-.58-.72-.22-1.44-.43-2.16-.65-.72-.22-1.43-.48-2.12-.79-.7-.31-1.37-.65-2.02-1.01-.65-.36-1.26-.78-1.84-1.26-.58-.48-1.1-1.02-1.58-1.62-.48-.6-.89-1.24-1.22-1.91-.34-.67-.59-1.38-.76-2.12-.17-.74-.25-1.5-.25-2.27,0-1.05,.16-2.12,.47-3.2,.31-1.08,.77-2.08,1.37-2.99,.6-.91,1.33-1.7,2.2-2.38,.86-.67,1.81-1.21,2.84-1.62,1.03-.41,2.09-.68,3.17-.83,1.08-.14,2.17-.22,3.28-.22s2.12,.07,3.2,.22c1.08,.14,2.12,.42,3.13,.83,1.01,.41,1.94,.95,2.81,1.62,.86,.67,1.6,1.46,2.2,2.38,.6,.91,1.06,1.9,1.37,2.95,.31,1.06,.47,2.11,.47,3.17h-7.99c0-.62-.14-1.22-.43-1.8s-.68-1.05-1.19-1.44c-.5-.38-1.07-.65-1.69-.79-.62-.14-1.25-.22-1.87-.22-.67,0-1.32,.07-1.94,.22-.62,.14-1.19,.4-1.69,.76-.5,.36-.91,.84-1.22,1.44-.31,.6-.47,1.21-.47,1.84,0,.77,.25,1.45,.76,2.05,.5,.6,1.12,1.03,1.84,1.3,.72,.26,1.44,.48,2.16,.65,.72,.17,1.45,.35,2.2,.54,.74,.19,1.48,.41,2.2,.65,.72,.24,1.42,.52,2.09,.83,.67,.31,1.34,.65,2.02,1.01,.67,.36,1.3,.78,1.87,1.26,.58,.48,1.1,1.02,1.58,1.62,.48,.6,.89,1.24,1.22,1.91,.33,.67,.59,1.38,.76,2.12,.17,.74,.25,1.48,.25,2.2,0,1.15-.17,2.27-.5,3.35-.34,1.08-.83,2.08-1.48,2.99s-1.43,1.7-2.34,2.38c-.91,.67-1.9,1.2-2.95,1.58-1.06,.38-2.14,.65-3.24,.79-1.1,.14-2.23,.22-3.38,.22Z"/><path class="c" d="M282.33,554.23c-1.3,0-2.6-.12-3.92-.36-1.32-.24-2.56-.67-3.71-1.3-1.15-.62-2.17-1.43-3.06-2.41-.89-.98-1.61-2.06-2.16-3.24-.55-1.17-.94-2.42-1.15-3.74-.22-1.32-.32-2.63-.32-3.92v-8.64c0-1.3,.11-2.6,.32-3.92,.22-1.32,.6-2.57,1.15-3.74,.55-1.18,1.28-2.26,2.2-3.24,.91-.98,1.94-1.79,3.1-2.41,1.15-.62,2.38-1.09,3.67-1.4,1.3-.31,2.59-.47,3.89-.47s2.59,.16,3.89,.47c1.3,.31,2.52,.78,3.67,1.4,1.15,.62,2.18,1.43,3.1,2.41,.91,.98,1.64,2.06,2.2,3.24,.55,1.18,.94,2.42,1.15,3.74,.22,1.32,.32,2.63,.32,3.92v8.64c0,1.3-.11,2.6-.32,3.92-.22,1.32-.6,2.57-1.15,3.74-.55,1.18-1.27,2.26-2.16,3.24-.89,.98-1.91,1.79-3.06,2.41-1.15,.62-2.39,1.06-3.71,1.3-1.32,.24-2.63,.36-3.92,.36Zm0-6.91c.96,0,1.88-.22,2.77-.65,.89-.43,1.61-1.05,2.16-1.87,.55-.82,.92-1.7,1.12-2.66,.19-.96,.29-1.92,.29-2.88v-8.64c0-.96-.1-1.93-.29-2.92-.19-.98-.56-1.87-1.12-2.66-.55-.79-1.28-1.4-2.2-1.84-.91-.43-1.85-.65-2.81-.65s-1.88,.23-2.77,.68c-.89,.46-1.6,1.08-2.12,1.87-.53,.79-.89,1.67-1.08,2.63-.19,.96-.29,1.92-.29,2.88v8.64c0,.96,.1,1.92,.29,2.88,.19,.96,.56,1.85,1.12,2.66,.55,.82,1.27,1.44,2.16,1.87,.89,.43,1.81,.65,2.77,.65Z"/><path class="c" d="M303.14,553.65v-37.44h7.42v3.17c.24-.53,.52-1.02,.83-1.48,.31-.46,.68-.86,1.12-1.22,.43-.36,.92-.62,1.48-.79,.55-.17,1.12-.25,1.69-.25,.72,0,1.42,.14,2.09,.43,.67,.29,1.26,.68,1.76,1.19,.5,.5,.91,1.08,1.22,1.73,.31,.65,.56,1.33,.76,2.05,.14-.67,.37-1.34,.68-2.02,.31-.67,.71-1.26,1.19-1.76,.48-.5,1.06-.9,1.73-1.19,.67-.29,1.37-.43,2.09-.43s1.44,.16,2.16,.47c.72,.31,1.33,.76,1.84,1.33s.9,1.21,1.19,1.91c.29,.7,.52,1.42,.68,2.16,.17,.75,.29,1.49,.36,2.23,.07,.75,.11,1.5,.11,2.27v27.65h-7.42v-27.65c0-.43-.02-.85-.07-1.26-.05-.41-.13-.8-.25-1.19-.12-.38-.34-.74-.65-1.08-.31-.34-.66-.5-1.04-.5-.43,0-.79,.17-1.08,.5-.29,.34-.5,.7-.65,1.08-.14,.38-.24,.78-.29,1.19-.05,.41-.07,.83-.07,1.26v27.65h-7.34v-27.65c0-.43-.02-.85-.07-1.26-.05-.41-.14-.8-.29-1.19-.14-.38-.36-.74-.65-1.08-.29-.34-.65-.5-1.08-.5-.38,0-.73,.17-1.04,.5-.31,.34-.53,.7-.65,1.08-.12,.38-.2,.78-.25,1.19-.05,.41-.07,.83-.07,1.26v27.65h-7.42Z"/><path class="c" d="M354.48,554.23c-1.3,0-2.6-.12-3.92-.36-1.32-.24-2.56-.67-3.71-1.3-1.15-.62-2.19-1.42-3.1-2.38-.91-.96-1.66-2.04-2.23-3.24-.58-1.2-.97-2.46-1.19-3.78-.22-1.32-.32-2.63-.32-3.92v-8.64c0-1.3,.11-2.6,.32-3.92,.22-1.32,.6-2.57,1.15-3.74,.55-1.18,1.27-2.26,2.16-3.24,.89-.98,1.91-1.79,3.06-2.41,1.15-.62,2.39-1.05,3.71-1.3,1.32-.24,2.63-.36,3.92-.36s2.6,.12,3.92,.36c1.32,.24,2.56,.67,3.71,1.3,1.15,.62,2.17,1.43,3.06,2.41,.89,.98,1.61,2.06,2.16,3.24,.55,1.18,.94,2.42,1.15,3.74,.22,1.32,.32,2.63,.32,3.92v7.78h-20.66v.86c0,.96,.11,1.93,.32,2.92,.22,.98,.6,1.87,1.15,2.66,.55,.79,1.28,1.4,2.2,1.84,.91,.43,1.85,.65,2.81,.65,.72,0,1.43-.07,2.12-.22,.7-.14,1.33-.41,1.91-.79,.58-.38,1.04-.89,1.4-1.51,.36-.62,.56-1.3,.61-2.02h7.99c-.05,1.15-.25,2.26-.61,3.31-.36,1.06-.86,2.05-1.51,2.99-.65,.94-1.43,1.74-2.34,2.41-.91,.67-1.9,1.22-2.95,1.66-1.06,.43-2.14,.72-3.24,.86-1.1,.14-2.23,.22-3.38,.22Zm-6.48-22.75h12.67v-.86c0-.96-.1-1.92-.29-2.88-.19-.96-.56-1.85-1.12-2.66-.55-.82-1.27-1.44-2.16-1.87-.89-.43-1.81-.65-2.77-.65s-1.88,.22-2.77,.65c-.89,.43-1.61,1.06-2.16,1.87-.55,.82-.92,1.7-1.12,2.66-.19,.96-.29,1.92-.29,2.88v.86Z"/><path class="c" d="M376.58,532.63v-6.91h27.5v6.91h-27.5Z"/><path class="c" d="M426.12,554.23c-1.3,0-2.59-.12-3.89-.36-1.3-.24-2.51-.68-3.64-1.33-1.13-.65-2.14-1.46-3.02-2.45-.89-.98-1.61-2.06-2.16-3.24-.55-1.18-.92-2.41-1.12-3.71-.19-1.3-.29-2.59-.29-3.89v-8.64c0-1.3,.1-2.59,.29-3.89,.19-1.3,.56-2.53,1.12-3.71,.55-1.18,1.27-2.26,2.16-3.24,.89-.98,1.9-1.8,3.02-2.45,1.13-.65,2.34-1.09,3.64-1.33,1.3-.24,2.59-.36,3.89-.36s2.48,.11,3.71,.32c1.22,.22,2.39,.59,3.49,1.12,1.1,.53,2.1,1.22,2.99,2.09,.89,.86,1.62,1.84,2.2,2.92s1.01,2.23,1.3,3.46c.29,1.22,.43,2.44,.43,3.64v.14h-7.99v-.07c0-.86-.13-1.7-.4-2.52-.26-.82-.66-1.56-1.19-2.23-.53-.67-1.2-1.16-2.02-1.48-.82-.31-1.66-.47-2.52-.47-.96,0-1.87,.23-2.74,.68-.86,.46-1.55,1.08-2.05,1.87s-.85,1.67-1.04,2.63c-.19,.96-.29,1.92-.29,2.88v8.64c0,.96,.1,1.92,.29,2.88,.19,.96,.54,1.84,1.04,2.63s1.19,1.42,2.05,1.87c.86,.46,1.78,.68,2.74,.68,.86,0,1.7-.16,2.52-.47,.82-.31,1.49-.8,2.02-1.48,.53-.67,.92-1.42,1.19-2.23,.26-.82,.4-1.66,.4-2.52v-.07h7.99v.14c0,1.2-.14,2.41-.43,3.64-.29,1.22-.72,2.38-1.3,3.46s-1.31,2.05-2.2,2.92c-.89,.86-1.88,1.56-2.99,2.09-1.1,.53-2.27,.9-3.49,1.12s-2.46,.32-3.71,.32Z"/><path class="c" d="M462.33,554.23c-1.3,0-2.6-.12-3.92-.36-1.32-.24-2.56-.67-3.71-1.3-1.15-.62-2.17-1.43-3.06-2.41-.89-.98-1.61-2.06-2.16-3.24-.55-1.17-.94-2.42-1.15-3.74s-.32-2.63-.32-3.92v-8.64c0-1.3,.11-2.6,.32-3.92,.22-1.32,.6-2.57,1.15-3.74,.55-1.18,1.28-2.26,2.2-3.24,.91-.98,1.94-1.79,3.1-2.41,1.15-.62,2.38-1.09,3.67-1.4,1.3-.31,2.59-.47,3.89-.47s2.59,.16,3.89,.47c1.3,.31,2.52,.78,3.67,1.4,1.15,.62,2.18,1.43,3.1,2.41,.91,.98,1.64,2.06,2.2,3.24,.55,1.18,.94,2.42,1.15,3.74,.22,1.32,.32,2.63,.32,3.92v8.64c0,1.3-.11,2.6-.32,3.92s-.6,2.57-1.15,3.74c-.55,1.18-1.27,2.26-2.16,3.24-.89,.98-1.91,1.79-3.06,2.41-1.15,.62-2.39,1.06-3.71,1.3-1.32,.24-2.63,.36-3.92,.36Zm0-6.91c.96,0,1.88-.22,2.77-.65,.89-.43,1.61-1.05,2.16-1.87,.55-.82,.92-1.7,1.12-2.66,.19-.96,.29-1.92,.29-2.88v-8.64c0-.96-.1-1.93-.29-2.92-.19-.98-.56-1.87-1.12-2.66s-1.28-1.4-2.2-1.84c-.91-.43-1.85-.65-2.81-.65s-1.88,.23-2.77,.68c-.89,.46-1.6,1.08-2.12,1.87-.53,.79-.89,1.67-1.08,2.63-.19,.96-.29,1.92-.29,2.88v8.64c0,.96,.1,1.92,.29,2.88,.19,.96,.56,1.85,1.12,2.66,.55,.82,1.27,1.44,2.16,1.87,.89,.43,1.81,.65,2.77,.65Z"/><path class="c" d="M493.94,554.23c-.96,0-1.9-.08-2.81-.25-.91-.17-1.78-.49-2.59-.97-.82-.48-1.52-1.09-2.12-1.84-.6-.74-1.08-1.54-1.44-2.38-.36-.84-.61-1.73-.76-2.66-.14-.94-.22-1.86-.22-2.77,0-1.3,.16-2.57,.47-3.82,.31-1.25,.84-2.38,1.58-3.38s1.66-1.86,2.74-2.56c1.08-.7,2.22-1.25,3.42-1.66,1.2-.41,2.44-.7,3.71-.86,1.27-.17,2.53-.25,3.78-.25h4.39v-2.45c0-.82-.12-1.59-.36-2.34-.24-.74-.64-1.39-1.19-1.94-.55-.55-1.21-.95-1.98-1.19-.77-.24-1.56-.36-2.38-.36-.67,0-1.36,.08-2.05,.25-.7,.17-1.33,.47-1.91,.9-.58,.43-1.02,.98-1.33,1.66-.31,.67-.47,1.34-.47,2.02h-7.99c0-1.1,.16-2.21,.47-3.31,.31-1.1,.78-2.14,1.4-3.1,.62-.96,1.39-1.8,2.3-2.52,.91-.72,1.9-1.28,2.95-1.69,1.05-.41,2.15-.7,3.28-.86,1.13-.17,2.24-.25,3.35-.25,1.2,0,2.4,.08,3.6,.25,1.2,.17,2.34,.49,3.42,.97,1.08,.48,2.08,1.12,2.99,1.91,.91,.79,1.67,1.7,2.27,2.74,.6,1.03,1.02,2.14,1.26,3.31,.24,1.18,.36,2.36,.36,3.56v25.27h-7.99v-5.62c-.24,.48-.4,.78-.47,.9-.07,.12-.18,.29-.32,.5-.14,.22-.3,.43-.47,.65-.17,.22-.34,.42-.5,.61-.17,.19-.35,.38-.54,.58s-.38,.37-.58,.54c-.19,.17-.4,.32-.61,.47-.22,.14-.43,.29-.65,.43-.22,.14-.44,.28-.68,.4-.24,.12-.48,.23-.72,.32-.24,.1-.49,.18-.76,.25-.26,.07-.52,.14-.76,.22-.24,.07-.49,.12-.76,.14-.26,.02-.53,.05-.79,.07-.26,.02-.53,.05-.79,.07-.26,.02-.52,.04-.76,.04Zm3.24-6.91c.91,0,1.81-.13,2.7-.4,.89-.26,1.66-.71,2.3-1.33,.65-.62,1.13-1.37,1.44-2.23,.31-.86,.47-1.75,.47-2.66v-2.95h-4.39c-.58,0-1.14,.02-1.69,.07s-1.1,.14-1.66,.29c-.55,.14-1.09,.32-1.62,.54-.53,.22-1.01,.52-1.44,.9-.43,.38-.76,.84-.97,1.37-.22,.53-.32,1.08-.32,1.66,0,.67,.12,1.32,.36,1.94,.24,.62,.61,1.16,1.12,1.62,.5,.46,1.08,.77,1.73,.94,.65,.17,1.31,.25,1.98,.25Z"/><path class="c" d="M534.19,554.23c-1.11,0-2.21-.07-3.31-.22-1.1-.14-2.18-.42-3.24-.83-1.06-.41-2.04-.95-2.95-1.62-.91-.67-1.68-1.46-2.3-2.38-.62-.91-1.1-1.91-1.44-2.99-.34-1.08-.5-2.2-.5-3.35h8.06c0,.67,.16,1.32,.47,1.94,.31,.62,.76,1.13,1.33,1.51,.58,.38,1.2,.65,1.87,.79,.67,.14,1.34,.22,2.02,.22,.72,0,1.42-.06,2.09-.18,.67-.12,1.3-.36,1.87-.72,.58-.36,1.04-.84,1.4-1.44,.36-.6,.54-1.24,.54-1.91,0-.77-.26-1.45-.79-2.05-.53-.6-1.14-1.03-1.84-1.3-.7-.26-1.42-.48-2.16-.65-.74-.17-1.48-.36-2.2-.58-.72-.22-1.44-.43-2.16-.65s-1.43-.48-2.12-.79c-.7-.31-1.37-.65-2.02-1.01-.65-.36-1.26-.78-1.84-1.26-.58-.48-1.1-1.02-1.58-1.62-.48-.6-.89-1.24-1.22-1.91-.34-.67-.59-1.38-.76-2.12-.17-.74-.25-1.5-.25-2.27,0-1.05,.16-2.12,.47-3.2,.31-1.08,.77-2.08,1.37-2.99,.6-.91,1.33-1.7,2.2-2.38,.86-.67,1.81-1.21,2.84-1.62,1.03-.41,2.09-.68,3.17-.83,1.08-.14,2.17-.22,3.28-.22s2.12,.07,3.2,.22c1.08,.14,2.12,.42,3.13,.83,1.01,.41,1.94,.95,2.81,1.62s1.59,1.46,2.2,2.38c.6,.91,1.05,1.9,1.37,2.95,.31,1.06,.47,2.11,.47,3.17h-7.99c0-.62-.14-1.22-.43-1.8-.29-.58-.68-1.05-1.19-1.44-.5-.38-1.07-.65-1.69-.79-.62-.14-1.25-.22-1.87-.22-.67,0-1.32,.07-1.94,.22-.62,.14-1.19,.4-1.69,.76-.5,.36-.91,.84-1.22,1.44-.31,.6-.47,1.21-.47,1.84,0,.77,.25,1.45,.76,2.05,.5,.6,1.12,1.03,1.84,1.3,.72,.26,1.44,.48,2.16,.65,.72,.17,1.45,.35,2.2,.54,.74,.19,1.48,.41,2.2,.65s1.42,.52,2.09,.83c.67,.31,1.34,.65,2.02,1.01,.67,.36,1.3,.78,1.87,1.26,.58,.48,1.1,1.02,1.58,1.62,.48,.6,.89,1.24,1.22,1.91,.33,.67,.59,1.38,.76,2.12,.17,.74,.25,1.48,.25,2.2,0,1.15-.17,2.27-.5,3.35-.34,1.08-.83,2.08-1.48,2.99-.65,.91-1.43,1.7-2.34,2.38-.91,.67-1.9,1.2-2.95,1.58-1.06,.38-2.14,.65-3.24,.79-1.11,.14-2.23,.22-3.38,.22Z"/><path class="c" d="M574.51,554.23c-1.15,0-2.29-.14-3.42-.43-1.13-.29-2.16-.77-3.1-1.44-.94-.67-1.73-1.49-2.38-2.45-.65-.96-1.17-1.98-1.55-3.06-.38-1.08-.65-2.2-.79-3.35-.14-1.15-.22-2.3-.22-3.46v-16.92h-6.48v-6.91h6.48v-15.48h8.06v15.48h12.24v6.91h-12.24v16.92c0,.53,.01,1.03,.04,1.51,.02,.48,.07,.96,.14,1.44,.07,.48,.17,.96,.29,1.44,.12,.48,.3,.94,.54,1.37,.24,.43,.56,.79,.97,1.08,.41,.29,.88,.43,1.4,.43,.62,0,1.18-.24,1.66-.72s.84-1.03,1.08-1.66c.24-.62,.4-1.26,.47-1.91,.07-.65,.11-1.31,.11-1.98v-.29h8.06v.72c0,1.06-.1,2.12-.29,3.2-.19,1.08-.49,2.11-.9,3.1-.41,.98-.96,1.91-1.66,2.77-.7,.86-1.5,1.57-2.41,2.12-.91,.55-1.9,.95-2.95,1.19-1.06,.24-2.11,.36-3.17,.36Z"/><path class="c" d="M601.94,554.23c-.96,0-1.9-.08-2.81-.25-.91-.17-1.78-.49-2.59-.97-.82-.48-1.52-1.09-2.12-1.84-.6-.74-1.08-1.54-1.44-2.38-.36-.84-.61-1.73-.76-2.66-.14-.94-.22-1.86-.22-2.77,0-1.3,.16-2.57,.47-3.82,.31-1.25,.84-2.38,1.58-3.38s1.66-1.86,2.74-2.56c1.08-.7,2.22-1.25,3.42-1.66,1.2-.41,2.44-.7,3.71-.86,1.27-.17,2.53-.25,3.78-.25h4.39v-2.45c0-.82-.12-1.59-.36-2.34-.24-.74-.64-1.39-1.19-1.94-.55-.55-1.21-.95-1.98-1.19-.77-.24-1.56-.36-2.38-.36-.67,0-1.36,.08-2.05,.25-.7,.17-1.33,.47-1.91,.9-.58,.43-1.02,.98-1.33,1.66-.31,.67-.47,1.34-.47,2.02h-7.99c0-1.1,.16-2.21,.47-3.31,.31-1.1,.78-2.14,1.4-3.1,.62-.96,1.39-1.8,2.3-2.52,.91-.72,1.9-1.28,2.95-1.69,1.05-.41,2.15-.7,3.28-.86,1.13-.17,2.24-.25,3.35-.25,1.2,0,2.4,.08,3.6,.25,1.2,.17,2.34,.49,3.42,.97,1.08,.48,2.08,1.12,2.99,1.91,.91,.79,1.67,1.7,2.27,2.74,.6,1.03,1.02,2.14,1.26,3.31,.24,1.18,.36,2.36,.36,3.56v25.27h-7.99v-5.62c-.24,.48-.4,.78-.47,.9-.07,.12-.18,.29-.32,.5-.14,.22-.3,.43-.47,.65-.17,.22-.34,.42-.5,.61-.17,.19-.35,.38-.54,.58s-.38,.37-.58,.54c-.19,.17-.4,.32-.61,.47-.22,.14-.43,.29-.65,.43-.22,.14-.44,.28-.68,.4-.24,.12-.48,.23-.72,.32-.24,.1-.49,.18-.76,.25-.26,.07-.52,.14-.76,.22-.24,.07-.49,.12-.76,.14-.26,.02-.53,.05-.79,.07-.26,.02-.53,.05-.79,.07-.26,.02-.52,.04-.76,.04Zm3.24-6.91c.91,0,1.81-.13,2.7-.4,.89-.26,1.66-.71,2.3-1.33,.65-.62,1.13-1.37,1.44-2.23,.31-.86,.47-1.75,.47-2.66v-2.95h-4.39c-.58,0-1.14,.02-1.69,.07s-1.1,.14-1.66,.29c-.55,.14-1.09,.32-1.62,.54-.53,.22-1.01,.52-1.44,.9-.43,.38-.76,.84-.97,1.37-.22,.53-.32,1.08-.32,1.66,0,.67,.12,1.32,.36,1.94,.24,.62,.61,1.16,1.12,1.62,.5,.46,1.08,.77,1.73,.94,.65,.17,1.31,.25,1.98,.25Z"/><path class="c" d="M629.73,553.65v-6.91h9.07v-39.1h-8.06v-6.91h16.13v46.01h8.06v6.91h-25.2Z"/></g></svg>